<svg xmlns="http://www.w3.org/2000/svg" viewBox="0 0 32 32" width="32" height="32">
  <defs>
    <radialGradient id="a1" cx="25%" cy="22%" r="80%"><stop offset="0" stop-color="#8B5CF6"/><stop offset="1" stop-color="#8B5CF6" stop-opacity="0"/></radialGradient>
    <radialGradient id="a2" cx="80%" cy="20%" r="80%"><stop offset="0" stop-color="#EC4899"/><stop offset="1" stop-color="#EC4899" stop-opacity="0"/></radialGradient>
    <radialGradient id="a3" cx="82%" cy="82%" r="80%"><stop offset="0" stop-color="#06B6D4"/><stop offset="1" stop-color="#06B6D4" stop-opacity="0"/></radialGradient>
    <radialGradient id="a4" cx="18%" cy="84%" r="80%"><stop offset="0" stop-color="#14B8A6"/><stop offset="1" stop-color="#14B8A6" stop-opacity="0"/></radialGradient>
    <filter id="ag" x="-60%" y="-60%" width="220%" height="220%"><feGaussianBlur stdDeviation="1.1"/></filter>
  </defs>
  <rect width="32" height="32" rx="8" fill="#241E38"/>
  <rect width="32" height="32" rx="8" fill="url(#a1)"/>
  <rect width="32" height="32" rx="8" fill="url(#a2)"/>
  <rect width="32" height="32" rx="8" fill="url(#a3)"/>
  <rect width="32" height="32" rx="8" fill="url(#a4)"/>
  <g stroke="#ffffff" stroke-opacity="0.55" stroke-width="1.5" stroke-linecap="round">
    <line x1="16" y1="17" x2="8" y2="9"/>
    <line x1="16" y1="17" x2="24" y2="8"/>
    <line x1="16" y1="17" x2="23" y2="24"/>
  </g>
  <g fill="#ffffff">
    <circle cx="8" cy="9" r="2.4"/>
    <circle cx="24" cy="8" r="2.4"/>
    <circle cx="23" cy="24" r="2.4"/>
  </g>
  <circle cx="16" cy="17" r="5.4" fill="#ffffff" filter="url(#ag)" opacity="0.55"/>
  <circle cx="16" cy="17" r="4.4" fill="#ffffff"/>
</svg>
